<svg width="50" height="73" viewBox="0 0 50 73" fill="none" xmlns="http://www.w3.org/2000/svg">
    <rect x="1.5" y="1.5" width="47" height="69.5" rx="8.5" stroke="black" stroke-width="3"/>
    <path d="M25 27.8625V46.6125M19.6875 31.6125H16.875M20.625 35.3625H16.875M37.5 41.925V26.8375C37.5 25.3375 36.275 24.225 34.7875 24.35H34.7125C32.0875 24.575 28.1 25.9125 25.875 27.3125L25.6625 27.45C25.3 27.675 24.7 27.675 24.3375 27.45L24.025 27.2625C21.8 25.875 17.825 24.55 15.2 24.3375C13.7125 24.2125 12.5 25.3375 12.5 26.825V41.925C12.5 43.125 13.475 44.25 14.675 44.4L15.0375 44.45C17.75 44.8125 21.9375 46.1875 24.3375 47.5L24.3875 47.525C24.725 47.7125 25.2625 47.7125 25.5875 47.525C27.9875 46.2 32.1875 44.8125 34.9125 44.45L35.325 44.4C36.525 44.25 37.5 43.125 37.5 41.925V41.925Z" stroke="black" stroke-width="1.5" stroke-linecap="round" stroke-linejoin="round"/>
</svg>
