<svg width="303" height="88" viewBox="0 0 303 88" fill="none" xmlns="http://www.w3.org/2000/svg">
<path d="M26.642 55.5V33.6818H39.7244V36.0256H29.2841V43.3977H38.7443V45.7415H29.2841V55.5H26.642Z" fill="black"/>
<path d="M47.5 9H17.5C12.8056 9 9 12.8056 9 17.5V70C9 74.6944 12.8056 78.5 17.5 78.5H47.5C52.1944 78.5 56 74.6944 56 70V17.5C56 12.8056 52.1944 9 47.5 9Z" stroke="black" stroke-opacity="0.5" stroke-width="3"/>
<path d="M40 16.5H10C5.30558 16.5 1.5 20.3056 1.5 25V77.5C1.5 82.1944 5.30558 86 10 86H40C44.6944 86 48.5 82.1944 48.5 77.5V25C48.5 20.3056 44.6944 16.5 40 16.5Z" stroke="black" stroke-opacity="0.8" stroke-width="3"/>
<path d="M55 1.5H25C20.3056 1.5 16.5 5.30558 16.5 10V62.5C16.5 67.1944 20.3056 71 25 71H55C59.6944 71 63.5 67.1944 63.5 62.5V10C63.5 5.30558 59.6944 1.5 55 1.5Z" stroke="black" stroke-opacity="0.2" stroke-width="3"/>
<path d="M89.642 54V32.1818H102.724V34.5256H92.2841V41.8977H101.744V44.2415H92.2841V54H89.642ZM109.423 32.1818V54H106.909V32.1818H109.423ZM118.843 54.3835C117.806 54.3835 116.865 54.1882 116.02 53.7976C115.175 53.3999 114.504 52.8281 114.006 52.0824C113.509 51.3295 113.261 50.4205 113.261 49.3551C113.261 48.4176 113.445 47.6577 113.815 47.0753C114.184 46.4858 114.678 46.0241 115.295 45.6903C115.913 45.3565 116.595 45.108 117.341 44.9446C118.094 44.7741 118.85 44.6392 119.61 44.5398C120.604 44.4119 121.411 44.3161 122.028 44.2521C122.653 44.1811 123.108 44.0639 123.392 43.9006C123.683 43.7372 123.829 43.4531 123.829 43.0483V42.9631C123.829 41.9119 123.541 41.0952 122.966 40.5128C122.398 39.9304 121.535 39.6392 120.377 39.6392C119.177 39.6392 118.236 39.902 117.554 40.4276C116.872 40.9531 116.393 41.5142 116.116 42.1108L113.729 41.2585C114.156 40.2642 114.724 39.4901 115.434 38.9361C116.151 38.375 116.933 37.9844 117.778 37.7642C118.63 37.5369 119.468 37.4233 120.292 37.4233C120.817 37.4233 121.421 37.4872 122.103 37.6151C122.792 37.7358 123.456 37.9879 124.095 38.3714C124.741 38.755 125.278 39.3338 125.704 40.108C126.13 40.8821 126.343 41.919 126.343 43.2188V54H123.829V51.7841H123.701C123.531 52.1392 123.246 52.5192 122.849 52.924C122.451 53.3288 121.922 53.6733 121.261 53.9574C120.601 54.2415 119.795 54.3835 118.843 54.3835ZM119.227 52.125C120.221 52.125 121.059 51.9297 121.741 51.5391C122.43 51.1484 122.948 50.6442 123.296 50.0263C123.651 49.4084 123.829 48.7585 123.829 48.0767V45.7756C123.722 45.9034 123.488 46.0206 123.126 46.1271C122.771 46.2266 122.359 46.3153 121.89 46.3935C121.428 46.4645 120.977 46.5284 120.537 46.5852C120.104 46.6349 119.752 46.6776 119.482 46.7131C118.829 46.7983 118.218 46.9368 117.65 47.1286C117.089 47.3132 116.634 47.5937 116.286 47.9702C115.945 48.3395 115.775 48.8437 115.775 49.483C115.775 50.3565 116.098 51.017 116.744 51.4645C117.398 51.9048 118.225 52.125 119.227 52.125ZM142.523 41.3011L140.264 41.9403C140.122 41.5639 139.913 41.1982 139.636 40.843C139.366 40.4808 138.997 40.1825 138.528 39.9482C138.059 39.7138 137.459 39.5966 136.727 39.5966C135.726 39.5966 134.892 39.8274 134.224 40.2891C133.563 40.7436 133.233 41.3224 133.233 42.0256C133.233 42.6506 133.46 43.1442 133.915 43.5064C134.369 43.8686 135.08 44.1705 136.046 44.4119L138.475 45.0085C139.938 45.3636 141.028 45.907 141.745 46.6385C142.463 47.3629 142.821 48.2969 142.821 49.4403C142.821 50.3778 142.551 51.2159 142.012 51.9545C141.479 52.6932 140.733 53.2756 139.774 53.7017C138.816 54.1278 137.7 54.3409 136.429 54.3409C134.76 54.3409 133.379 53.9787 132.285 53.2543C131.191 52.5298 130.499 51.4716 130.208 50.0795L132.594 49.483C132.821 50.3636 133.251 51.0241 133.883 51.4645C134.522 51.9048 135.357 52.125 136.387 52.125C137.558 52.125 138.489 51.8764 139.178 51.3793C139.874 50.875 140.222 50.2713 140.222 49.5682C140.222 49 140.023 48.5241 139.625 48.1406C139.227 47.75 138.617 47.4588 137.793 47.267L135.066 46.6278C133.567 46.2727 132.466 45.7223 131.763 44.9766C131.067 44.2237 130.719 43.2827 130.719 42.1534C130.719 41.2301 130.978 40.4134 131.497 39.7031C132.022 38.9929 132.736 38.4354 133.638 38.0305C134.547 37.6257 135.577 37.4233 136.727 37.4233C138.347 37.4233 139.618 37.7784 140.541 38.4886C141.472 39.1989 142.132 40.1364 142.523 41.3011ZM149.12 44.1562V54H146.606V32.1818H149.12V40.1932H149.333C149.717 39.348 150.292 38.6768 151.059 38.1797C151.833 37.6754 152.863 37.4233 154.148 37.4233C155.263 37.4233 156.24 37.647 157.078 38.0945C157.916 38.5348 158.566 39.2131 159.028 40.1293C159.496 41.0384 159.731 42.196 159.731 43.6023V54H157.217V43.7727C157.217 42.473 156.879 41.468 156.205 40.7578C155.537 40.0405 154.61 39.6818 153.424 39.6818C152.6 39.6818 151.862 39.8558 151.208 40.2038C150.562 40.5518 150.05 41.0597 149.674 41.7273C149.305 42.3949 149.12 43.2045 149.12 44.1562ZM182.228 39H179.586C179.43 38.2401 179.156 37.5724 178.766 36.9972C178.382 36.4219 177.914 35.9389 177.36 35.5483C176.813 35.1506 176.205 34.8523 175.538 34.6534C174.87 34.4545 174.174 34.3551 173.45 34.3551C172.129 34.3551 170.932 34.6889 169.86 35.3565C168.794 36.0241 167.945 37.0078 167.313 38.3075C166.688 39.6072 166.376 41.2017 166.376 43.0909C166.376 44.9801 166.688 46.5746 167.313 47.8743C167.945 49.174 168.794 50.1577 169.86 50.8253C170.932 51.4929 172.129 51.8267 173.45 51.8267C174.174 51.8267 174.87 51.7273 175.538 51.5284C176.205 51.3295 176.813 51.0348 177.36 50.6442C177.914 50.2464 178.382 49.7599 178.766 49.1847C179.156 48.6023 179.43 47.9347 179.586 47.1818H182.228C182.029 48.2969 181.667 49.2947 181.142 50.1754C180.616 51.0561 179.963 51.8054 179.181 52.4233C178.4 53.0341 177.523 53.4993 176.55 53.8189C175.584 54.1385 174.551 54.2983 173.45 54.2983C171.589 54.2983 169.934 53.8438 168.485 52.9347C167.036 52.0256 165.896 50.733 165.066 49.0568C164.235 47.3807 163.819 45.392 163.819 43.0909C163.819 40.7898 164.235 38.8011 165.066 37.125C165.896 35.4489 167.036 34.1562 168.485 33.2472C169.934 32.3381 171.589 31.8835 173.45 31.8835C174.551 31.8835 175.584 32.0433 176.55 32.3629C177.523 32.6825 178.4 33.1513 179.181 33.7692C179.963 34.38 180.616 35.1257 181.142 36.0064C181.667 36.88 182.029 37.8778 182.228 39ZM190.972 54.3835C189.935 54.3835 188.994 54.1882 188.149 53.7976C187.304 53.3999 186.632 52.8281 186.135 52.0824C185.638 51.3295 185.39 50.4205 185.39 49.3551C185.39 48.4176 185.574 47.6577 185.944 47.0753C186.313 46.4858 186.806 46.0241 187.424 45.6903C188.042 45.3565 188.724 45.108 189.47 44.9446C190.223 44.7741 190.979 44.6392 191.739 44.5398C192.733 44.4119 193.539 44.3161 194.157 44.2521C194.782 44.1811 195.237 44.0639 195.521 43.9006C195.812 43.7372 195.958 43.4531 195.958 43.0483V42.9631C195.958 41.9119 195.67 41.0952 195.095 40.5128C194.527 39.9304 193.664 39.6392 192.506 39.6392C191.306 39.6392 190.365 39.902 189.683 40.4276C189.001 40.9531 188.522 41.5142 188.245 42.1108L185.858 41.2585C186.284 40.2642 186.853 39.4901 187.563 38.9361C188.28 38.375 189.061 37.9844 189.907 37.7642C190.759 37.5369 191.597 37.4233 192.421 37.4233C192.946 37.4233 193.55 37.4872 194.232 37.6151C194.921 37.7358 195.585 37.9879 196.224 38.3714C196.87 38.755 197.407 39.3338 197.833 40.108C198.259 40.8821 198.472 41.919 198.472 43.2188V54H195.958V51.7841H195.83C195.659 52.1392 195.375 52.5192 194.978 52.924C194.58 53.3288 194.051 53.6733 193.39 53.9574C192.73 54.2415 191.924 54.3835 190.972 54.3835ZM191.355 52.125C192.35 52.125 193.188 51.9297 193.87 51.5391C194.559 51.1484 195.077 50.6442 195.425 50.0263C195.78 49.4084 195.958 48.7585 195.958 48.0767V45.7756C195.851 45.9034 195.617 46.0206 195.255 46.1271C194.9 46.2266 194.488 46.3153 194.019 46.3935C193.557 46.4645 193.106 46.5284 192.666 46.5852C192.233 46.6349 191.881 46.6776 191.611 46.7131C190.958 46.7983 190.347 46.9368 189.779 47.1286C189.218 47.3132 188.763 47.5937 188.415 47.9702C188.074 48.3395 187.904 48.8437 187.904 49.483C187.904 50.3565 188.227 51.017 188.873 51.4645C189.527 51.9048 190.354 52.125 191.355 52.125ZM203.061 54V37.6364H205.49V40.108H205.66C205.959 39.2983 206.498 38.6413 207.28 38.1371C208.061 37.6328 208.942 37.3807 209.922 37.3807C210.106 37.3807 210.337 37.3842 210.614 37.3913C210.891 37.3984 211.101 37.4091 211.243 37.4233V39.9801C211.157 39.9588 210.962 39.9268 210.657 39.8842C210.358 39.8345 210.042 39.8097 209.709 39.8097C208.913 39.8097 208.203 39.9766 207.578 40.3104C206.96 40.6371 206.47 41.0916 206.108 41.674C205.753 42.2493 205.575 42.9062 205.575 43.6449V54H203.061ZM219.904 54.3409C218.54 54.3409 217.336 53.9964 216.292 53.3075C215.248 52.6115 214.432 51.6314 213.842 50.3672C213.253 49.0959 212.958 47.5938 212.958 45.8608C212.958 44.142 213.253 42.6506 213.842 41.3864C214.432 40.1222 215.252 39.1456 216.303 38.4567C217.354 37.7678 218.569 37.4233 219.947 37.4233C221.012 37.4233 221.854 37.6009 222.471 37.956C223.096 38.304 223.572 38.7017 223.899 39.1491C224.233 39.5895 224.492 39.9517 224.677 40.2358H224.89V32.1818H227.404V54H224.975V51.4858H224.677C224.492 51.7841 224.229 52.1605 223.888 52.6151C223.547 53.0625 223.061 53.4638 222.429 53.8189C221.797 54.1669 220.955 54.3409 219.904 54.3409ZM220.245 52.0824C221.253 52.0824 222.106 51.8196 222.802 51.294C223.498 50.7614 224.027 50.0263 224.389 49.0888C224.751 48.1442 224.932 47.054 224.932 45.8182C224.932 44.5966 224.755 43.5277 224.4 42.6115C224.045 41.6882 223.519 40.9709 222.823 40.4595C222.127 39.9411 221.268 39.6818 220.245 39.6818C219.18 39.6818 218.292 39.9553 217.581 40.5021C216.878 41.0419 216.349 41.777 215.994 42.7074C215.646 43.6307 215.472 44.6676 215.472 45.8182C215.472 46.983 215.65 48.0412 216.005 48.9929C216.367 49.9375 216.9 50.6903 217.603 51.2514C218.313 51.8054 219.194 52.0824 220.245 52.0824ZM243.949 41.3011L241.69 41.9403C241.548 41.5639 241.339 41.1982 241.062 40.843C240.792 40.4808 240.422 40.1825 239.954 39.9482C239.485 39.7138 238.885 39.5966 238.153 39.5966C237.152 39.5966 236.317 39.8274 235.65 40.2891C234.989 40.7436 234.659 41.3224 234.659 42.0256C234.659 42.6506 234.886 43.1442 235.341 43.5064C235.795 43.8686 236.506 44.1705 237.471 44.4119L239.9 45.0085C241.363 45.3636 242.454 45.907 243.171 46.6385C243.888 47.3629 244.247 48.2969 244.247 49.4403C244.247 50.3778 243.977 51.2159 243.437 51.9545C242.905 52.6932 242.159 53.2756 241.2 53.7017C240.241 54.1278 239.126 54.3409 237.855 54.3409C236.186 54.3409 234.805 53.9787 233.711 53.2543C232.617 52.5298 231.925 51.4716 231.633 50.0795L234.02 49.483C234.247 50.3636 234.677 51.0241 235.309 51.4645C235.948 51.9048 236.782 52.125 237.812 52.125C238.984 52.125 239.915 51.8764 240.604 51.3793C241.3 50.875 241.648 50.2713 241.648 49.5682C241.648 49 241.449 48.5241 241.051 48.1406C240.653 47.75 240.042 47.4588 239.219 47.267L236.491 46.6278C234.993 46.2727 233.892 45.7223 233.189 44.9766C232.493 44.2237 232.145 43.2827 232.145 42.1534C232.145 41.2301 232.404 40.4134 232.922 39.7031C233.448 38.9929 234.162 38.4354 235.064 38.0305C235.973 37.6257 237.003 37.4233 238.153 37.4233C239.773 37.4233 241.044 37.7784 241.967 38.4886C242.898 39.1989 243.558 40.1364 243.949 41.3011ZM249.267 54H246.498L254.509 32.1818H257.236L265.248 54H262.478L255.958 35.6335H255.787L249.267 54ZM250.29 45.4773H261.455V47.821H250.29V45.4773ZM268.305 60.1364V37.6364H270.734V40.2358H271.032C271.217 39.9517 271.473 39.5895 271.799 39.1491C272.133 38.7017 272.609 38.304 273.227 37.956C273.852 37.6009 274.697 37.4233 275.762 37.4233C277.14 37.4233 278.355 37.7678 279.406 38.4567C280.457 39.1456 281.277 40.1222 281.867 41.3864C282.456 42.6506 282.751 44.142 282.751 45.8608C282.751 47.5938 282.456 49.0959 281.867 50.3672C281.277 51.6314 280.461 52.6115 279.417 53.3075C278.373 53.9964 277.169 54.3409 275.805 54.3409C274.754 54.3409 273.912 54.1669 273.28 53.8189C272.648 53.4638 272.162 53.0625 271.821 52.6151C271.48 52.1605 271.217 51.7841 271.032 51.4858H270.819V60.1364H268.305ZM270.777 45.8182C270.777 47.054 270.958 48.1442 271.32 49.0888C271.682 50.0263 272.211 50.7614 272.907 51.294C273.603 51.8196 274.456 52.0824 275.464 52.0824C276.515 52.0824 277.392 51.8054 278.096 51.2514C278.806 50.6903 279.338 49.9375 279.694 48.9929C280.056 48.0412 280.237 46.983 280.237 45.8182C280.237 44.6676 280.059 43.6307 279.704 42.7074C279.356 41.777 278.827 41.0419 278.117 40.5021C277.414 39.9553 276.529 39.6818 275.464 39.6818C274.441 39.6818 273.582 39.9411 272.886 40.4595C272.19 40.9709 271.664 41.6882 271.309 42.6115C270.954 43.5277 270.777 44.5966 270.777 45.8182ZM286.586 60.1364V37.6364H289.015V40.2358H289.314C289.498 39.9517 289.754 39.5895 290.081 39.1491C290.414 38.7017 290.89 38.304 291.508 37.956C292.133 37.6009 292.978 37.4233 294.044 37.4233C295.422 37.4233 296.636 37.7678 297.687 38.4567C298.738 39.1456 299.559 40.1222 300.148 41.3864C300.738 42.6506 301.032 44.142 301.032 45.8608C301.032 47.5938 300.738 49.0959 300.148 50.3672C299.559 51.6314 298.742 52.6115 297.698 53.3075C296.654 53.9964 295.45 54.3409 294.086 54.3409C293.035 54.3409 292.194 54.1669 291.561 53.8189C290.929 53.4638 290.443 53.0625 290.102 52.6151C289.761 52.1605 289.498 51.7841 289.314 51.4858H289.1V60.1364H286.586ZM289.058 45.8182C289.058 47.054 289.239 48.1442 289.601 49.0888C289.963 50.0263 290.493 50.7614 291.189 51.294C291.885 51.8196 292.737 52.0824 293.745 52.0824C294.797 52.0824 295.674 51.8054 296.377 51.2514C297.087 50.6903 297.62 49.9375 297.975 48.9929C298.337 48.0412 298.518 46.983 298.518 45.8182C298.518 44.6676 298.341 43.6307 297.985 42.7074C297.637 41.777 297.108 41.0419 296.398 40.5021C295.695 39.9553 294.811 39.6818 293.745 39.6818C292.723 39.6818 291.863 39.9411 291.167 40.4595C290.471 40.9709 289.946 41.6882 289.591 42.6115C289.235 43.5277 289.058 44.5966 289.058 45.8182Z" fill="black"/>
</svg>
