<svg width="58" height="50" viewBox="0 0 58 77" fill="none" xmlns="http://www.w3.org/2000/svg">
    <path d="M20.8421 14.3141C21.6579 4.86029 26.5263 1 37.1842 1H37.5263C49.2895 1 54 5.70063 54 17.4391V34.5609C54 46.2994 49.2895 51 37.5263 51H37.1842C26.6053 51 21.7368 47.1922 20.8684 37.896M36.8947 25.9737H6.94737M12.8158 17.1765L4 25.9737L12.8158 34.771" stroke="black" stroke-width="1.5" stroke-linecap="round" stroke-linejoin="round"/>
    <path d="M1.86648 57.4545V72H0.190341V57.4545H1.86648ZM9.36825 72.2273C8.3834 72.2273 7.51929 71.9929 6.77592 71.5241C6.03729 71.0554 5.45964 70.3996 5.04297 69.5568C4.63104 68.714 4.42507 67.7292 4.42507 66.6023C4.42507 65.4659 4.63104 64.474 5.04297 63.6264C5.45964 62.7789 6.03729 62.1207 6.77592 61.652C7.51929 61.1832 8.3834 60.9489 9.36825 60.9489C10.3531 60.9489 11.2148 61.1832 11.9535 61.652C12.6969 62.1207 13.2745 62.7789 13.6864 63.6264C14.1031 64.474 14.3114 65.4659 14.3114 66.6023C14.3114 67.7292 14.1031 68.714 13.6864 69.5568C13.2745 70.3996 12.6969 71.0554 11.9535 71.5241C11.2148 71.9929 10.3531 72.2273 9.36825 72.2273ZM9.36825 70.7216C10.1164 70.7216 10.7319 70.5298 11.2148 70.1463C11.6978 69.7628 12.0553 69.2585 12.2873 68.6335C12.5193 68.0085 12.6353 67.3314 12.6353 66.6023C12.6353 65.8731 12.5193 65.1937 12.2873 64.5639C12.0553 63.9342 11.6978 63.4252 11.2148 63.0369C10.7319 62.6487 10.1164 62.4545 9.36825 62.4545C8.62015 62.4545 8.00462 62.6487 7.52166 63.0369C7.03871 63.4252 6.68123 63.9342 6.44922 64.5639C6.21721 65.1937 6.10121 65.8731 6.10121 66.6023C6.10121 67.3314 6.21721 68.0085 6.44922 68.6335C6.68123 69.2585 7.03871 69.7628 7.52166 70.1463C8.00462 70.5298 8.62015 70.7216 9.36825 70.7216ZM21.2734 76.3182C20.4638 76.3182 19.7678 76.214 19.1854 76.0057C18.603 75.8021 18.1177 75.5322 17.7294 75.196C17.3459 74.8646 17.0405 74.5095 16.8132 74.1307L18.1484 73.1932C18.3 73.392 18.4917 73.6193 18.7237 73.875C18.9557 74.1354 19.273 74.3603 19.6754 74.5497C20.0826 74.7438 20.6153 74.8409 21.2734 74.8409C22.1541 74.8409 22.8809 74.6278 23.4538 74.2017C24.0268 73.7756 24.3132 73.108 24.3132 72.1989V69.983H24.1712C24.0481 70.1818 23.8729 70.428 23.6456 70.7216C23.4231 71.0104 23.1011 71.2685 22.6797 71.4957C22.263 71.7183 21.6996 71.8295 20.9893 71.8295C20.1087 71.8295 19.3179 71.6212 18.6172 71.2045C17.9212 70.7879 17.3696 70.1818 16.9624 69.3864C16.5599 68.5909 16.3587 67.625 16.3587 66.4886C16.3587 65.3712 16.5552 64.3982 16.9482 63.5696C17.3411 62.7363 17.888 62.0923 18.5888 61.6378C19.2895 61.1785 20.0992 60.9489 21.0178 60.9489C21.728 60.9489 22.2914 61.0672 22.7081 61.304C23.1295 61.536 23.4515 61.8011 23.674 62.0994C23.9013 62.393 24.0765 62.6345 24.1996 62.8239H24.37V61.0909H25.9893V72.3125C25.9893 73.25 25.7763 74.0123 25.3501 74.5994C24.9287 75.1913 24.3606 75.6245 23.6456 75.8991C22.9354 76.1785 22.1446 76.3182 21.2734 76.3182ZM21.2166 70.3239C21.889 70.3239 22.4571 70.17 22.9212 69.8622C23.3852 69.5545 23.7379 69.1117 23.9794 68.5341C24.2209 67.9564 24.3416 67.2652 24.3416 66.4602C24.3416 65.6742 24.2232 64.9806 23.9865 64.3793C23.7498 63.7779 23.3994 63.3068 22.9354 62.9659C22.4714 62.625 21.8984 62.4545 21.2166 62.4545C20.5064 62.4545 19.9145 62.6345 19.4411 62.9943C18.9723 63.3542 18.6196 63.8371 18.3828 64.4432C18.1508 65.0492 18.0348 65.7216 18.0348 66.4602C18.0348 67.2178 18.1532 67.8878 18.3899 68.4702C18.6314 69.0478 18.9865 69.5024 19.4553 69.8338C19.9287 70.1605 20.5159 70.3239 21.2166 70.3239ZM33.4893 72.2273C32.5045 72.2273 31.6404 71.9929 30.897 71.5241C30.1584 71.0554 29.5807 70.3996 29.1641 69.5568C28.7521 68.714 28.5462 67.7292 28.5462 66.6023C28.5462 65.4659 28.7521 64.474 29.1641 63.6264C29.5807 62.7789 30.1584 62.1207 30.897 61.652C31.6404 61.1832 32.5045 60.9489 33.4893 60.9489C34.4742 60.9489 35.3359 61.1832 36.0746 61.652C36.8179 62.1207 37.3956 62.7789 37.8075 63.6264C38.2242 64.474 38.4325 65.4659 38.4325 66.6023C38.4325 67.7292 38.2242 68.714 37.8075 69.5568C37.3956 70.3996 36.8179 71.0554 36.0746 71.5241C35.3359 71.9929 34.4742 72.2273 33.4893 72.2273ZM33.4893 70.7216C34.2375 70.7216 34.853 70.5298 35.3359 70.1463C35.8189 69.7628 36.1764 69.2585 36.4084 68.6335C36.6404 68.0085 36.7564 67.3314 36.7564 66.6023C36.7564 65.8731 36.6404 65.1937 36.4084 64.5639C36.1764 63.9342 35.8189 63.4252 35.3359 63.0369C34.853 62.6487 34.2375 62.4545 33.4893 62.4545C32.7412 62.4545 32.1257 62.6487 31.6428 63.0369C31.1598 63.4252 30.8023 63.9342 30.5703 64.5639C30.3383 65.1937 30.2223 65.8731 30.2223 66.6023C30.2223 67.3314 30.3383 68.0085 30.5703 68.6335C30.8023 69.2585 31.1598 69.7628 31.6428 70.1463C32.1257 70.5298 32.7412 70.7216 33.4893 70.7216ZM47.8661 67.5398V61.0909H49.5423V72H47.8661V70.1534H47.7525C47.4968 70.7074 47.0991 71.1785 46.5593 71.5668C46.0195 71.9503 45.3377 72.142 44.5138 72.142C43.832 72.142 43.226 71.9929 42.6957 71.6946C42.1654 71.3916 41.7487 70.937 41.4457 70.331C41.1426 69.7202 40.9911 68.9508 40.9911 68.0227V61.0909H42.6673V67.9091C42.6673 68.7045 42.8898 69.339 43.3349 69.8125C43.7847 70.286 44.3576 70.5227 45.0536 70.5227C45.4703 70.5227 45.8941 70.4162 46.3249 70.2031C46.7605 69.9901 47.1251 69.6634 47.4187 69.223C47.717 68.7827 47.8661 68.2216 47.8661 67.5398ZM57.3565 61.0909V62.5114H51.7031V61.0909H57.3565ZM53.3509 58.4773H55.027V68.875C55.027 69.3485 55.0956 69.7036 55.233 69.9403C55.375 70.1723 55.5549 70.3286 55.7727 70.4091C55.9953 70.4848 56.2296 70.5227 56.4759 70.5227C56.6605 70.5227 56.812 70.5133 56.9304 70.4943C57.0488 70.4706 57.1435 70.4517 57.2145 70.4375L57.5554 71.9432C57.4418 71.9858 57.2831 72.0284 57.0795 72.071C56.8759 72.1184 56.6179 72.142 56.3054 72.142C55.8319 72.142 55.3679 72.0402 54.9134 71.8366C54.4635 71.633 54.0895 71.3229 53.7912 70.9062C53.4976 70.4896 53.3509 69.964 53.3509 69.3295V58.4773Z" fill="black"/>
</svg>
