<svg width="92" height="50" viewBox="0 0 92 77" fill="none" xmlns="http://www.w3.org/2000/svg">
    <path d="M67.4749 51C67.4749 41.325 57.8499 33.5 45.9999 33.5C34.1499 33.5 24.5249 41.325 24.5249 51M45.9999 26C49.3151 26 52.4945 24.683 54.8387 22.3388C57.1829 19.9946 58.4999 16.8152 58.4999 13.5C58.4999 10.1848 57.1829 7.00537 54.8387 4.66117C52.4945 2.31696 49.3151 1 45.9999 1C42.6847 1 39.5053 2.31696 37.1611 4.66117C34.8169 7.00537 33.4999 10.1848 33.4999 13.5C33.4999 16.8152 34.8169 19.9946 37.1611 22.3388C39.5053 24.683 42.6847 26 45.9999 26V26Z" stroke="black" stroke-width="1.5" stroke-linecap="round" stroke-linejoin="round"/>
    <path d="M0.373935 72V61.0909H1.99325V62.7955H2.1353C2.36257 62.2131 2.72952 61.7609 3.23615 61.4389C3.74278 61.1122 4.35121 60.9489 5.06143 60.9489C5.78113 60.9489 6.38009 61.1122 6.85831 61.4389C7.34126 61.7609 7.71768 62.2131 7.98757 62.7955H8.10121C8.38056 62.232 8.7996 61.7846 9.35831 61.4531C9.91702 61.117 10.587 60.9489 11.3683 60.9489C12.3436 60.9489 13.1415 61.2543 13.7617 61.8651C14.382 62.4711 14.6921 63.4157 14.6921 64.6989V72H13.016V64.6989C13.016 63.8939 12.7958 63.3187 12.3555 62.973C11.9151 62.6274 11.3967 62.4545 10.8001 62.4545C10.033 62.4545 9.4388 62.6866 9.0174 63.1506C8.596 63.6098 8.3853 64.1922 8.3853 64.8977V72H6.68075V64.5284C6.68075 63.9081 6.47952 63.4086 6.07706 63.0298C5.6746 62.6463 5.15613 62.4545 4.52166 62.4545C4.08606 62.4545 3.67886 62.5705 3.30007 62.8026C2.92602 63.0346 2.62299 63.3565 2.39098 63.7685C2.16371 64.1757 2.05007 64.6468 2.05007 65.1818V72H0.373935ZM18.4457 76.0909C18.1616 76.0909 17.9083 76.0672 17.6857 76.0199C17.4632 75.9773 17.3093 75.9347 17.2241 75.892L17.6502 74.4148C18.0574 74.5189 18.4173 74.5568 18.7298 74.5284C19.0423 74.5 19.3192 74.3603 19.5607 74.1094C19.8069 73.8632 20.0318 73.4631 20.2354 72.9091L20.5479 72.0568L16.5138 61.0909H18.332L21.3434 69.7841H21.457L24.4684 61.0909H26.2866L21.6559 73.5909C21.4476 74.1544 21.1895 74.6207 20.8817 74.9901C20.574 75.3641 20.2165 75.6411 19.8093 75.821C19.4068 76.0009 18.9523 76.0909 18.4457 76.0909ZM34.1239 76.0909V61.0909H35.7433V62.8239H35.9421C36.0652 62.6345 36.2357 62.393 36.4535 62.0994C36.676 61.8011 36.9933 61.536 37.4052 61.304C37.8219 61.0672 38.3853 60.9489 39.0955 60.9489C40.0141 60.9489 40.8237 61.1785 41.5245 61.6378C42.2253 62.0971 42.7721 62.7481 43.1651 63.5909C43.5581 64.4337 43.7546 65.428 43.7546 66.5739C43.7546 67.7292 43.5581 68.7306 43.1651 69.5781C42.7721 70.4209 42.2276 71.0743 41.5316 71.5384C40.8356 71.9976 40.033 72.2273 39.1239 72.2273C38.4232 72.2273 37.8621 72.1113 37.4407 71.8793C37.0193 71.6425 36.695 71.375 36.4677 71.0767C36.2404 70.7737 36.0652 70.5227 35.9421 70.3239H35.8001V76.0909H34.1239ZM35.7717 66.5455C35.7717 67.3693 35.8924 68.0961 36.1339 68.7259C36.3754 69.3509 36.7281 69.8409 37.1921 70.196C37.6561 70.5464 38.2243 70.7216 38.8967 70.7216C39.5974 70.7216 40.1822 70.5369 40.6509 70.1676C41.1244 69.7936 41.4795 69.2917 41.7163 68.6619C41.9577 68.0275 42.0785 67.322 42.0785 66.5455C42.0785 65.7784 41.9601 65.0871 41.7234 64.4716C41.4914 63.8513 41.1386 63.3613 40.6651 63.0014C40.1964 62.6368 39.6069 62.4545 38.8967 62.4545C38.2148 62.4545 37.6419 62.6274 37.1779 62.973C36.7139 63.3139 36.3635 63.7921 36.1268 64.4077C35.89 65.0185 35.7717 65.7311 35.7717 66.5455ZM46.3114 72V61.0909H47.9308V62.7386H48.0444C48.2433 62.1989 48.6031 61.7609 49.1239 61.4247C49.6448 61.0885 50.2319 60.9205 50.8853 60.9205C51.0084 60.9205 51.1623 60.9228 51.3469 60.9276C51.5316 60.9323 51.6713 60.9394 51.766 60.9489V62.6534C51.7092 62.6392 51.579 62.6179 51.3754 62.5895C51.1765 62.5563 50.9658 62.5398 50.7433 62.5398C50.213 62.5398 49.7395 62.651 49.3228 62.8736C48.9109 63.0914 48.5842 63.3944 48.3427 63.7827C48.1059 64.1662 47.9876 64.6042 47.9876 65.0966V72H46.3114ZM57.8526 72.2273C56.8678 72.2273 56.0037 71.9929 55.2603 71.5241C54.5217 71.0554 53.944 70.3996 53.5273 69.5568C53.1154 68.714 52.9094 67.7292 52.9094 66.6023C52.9094 65.4659 53.1154 64.474 53.5273 63.6264C53.944 62.7789 54.5217 62.1207 55.2603 61.652C56.0037 61.1832 56.8678 60.9489 57.8526 60.9489C58.8375 60.9489 59.6992 61.1832 60.4379 61.652C61.1812 62.1207 61.7589 62.7789 62.1708 63.6264C62.5875 64.474 62.7958 65.4659 62.7958 66.6023C62.7958 67.7292 62.5875 68.714 62.1708 69.5568C61.7589 70.3996 61.1812 71.0554 60.4379 71.5241C59.6992 71.9929 58.8375 72.2273 57.8526 72.2273ZM57.8526 70.7216C58.6007 70.7216 59.2163 70.5298 59.6992 70.1463C60.1822 69.7628 60.5397 69.2585 60.7717 68.6335C61.0037 68.0085 61.1197 67.3314 61.1197 66.6023C61.1197 65.8731 61.0037 65.1937 60.7717 64.5639C60.5397 63.9342 60.1822 63.4252 59.6992 63.0369C59.2163 62.6487 58.6007 62.4545 57.8526 62.4545C57.1045 62.4545 56.489 62.6487 56.006 63.0369C55.5231 63.4252 55.1656 63.9342 54.9336 64.5639C54.7016 65.1937 54.5856 65.8731 54.5856 66.6023C54.5856 67.3314 54.7016 68.0085 54.9336 68.6335C55.1656 69.2585 55.5231 69.7628 56.006 70.1463C56.489 70.5298 57.1045 70.7216 57.8526 70.7216ZM70.2124 61.0909V62.5114H64.3317V61.0909H70.2124ZM66.093 72V59.5852C66.093 58.9602 66.2398 58.4394 66.5334 58.0227C66.8269 57.6061 67.2081 57.2936 67.6768 57.0852C68.1456 56.8769 68.6404 56.7727 69.1612 56.7727C69.5732 56.7727 69.9093 56.8059 70.1697 56.8722C70.4302 56.9384 70.6243 57 70.7521 57.0568L70.2692 58.5057C70.1839 58.4773 70.0656 58.4418 69.9141 58.3991C69.7673 58.3565 69.5732 58.3352 69.3317 58.3352C68.7777 58.3352 68.3776 58.4749 68.1314 58.7543C67.8899 59.0336 67.7692 59.4432 67.7692 59.983V72H66.093ZM72.5614 72V61.0909H74.2376V72H72.5614ZM73.4137 59.2727C73.087 59.2727 72.8053 59.1615 72.5685 58.9389C72.3365 58.7164 72.2205 58.4489 72.2205 58.1364C72.2205 57.8239 72.3365 57.5563 72.5685 57.3338C72.8053 57.1113 73.087 57 73.4137 57C73.7404 57 74.0198 57.1113 74.2518 57.3338C74.4885 57.5563 74.6069 57.8239 74.6069 58.1364C74.6069 58.4489 74.4885 58.7164 74.2518 58.9389C74.0198 59.1615 73.7404 59.2727 73.4137 59.2727ZM78.9837 57.4545V72H77.3075V57.4545H78.9837ZM86.6275 72.2273C85.5763 72.2273 84.6696 71.9953 83.9073 71.5312C83.1497 71.0625 82.565 70.4091 82.1531 69.571C81.7459 68.7282 81.5423 67.7481 81.5423 66.6307C81.5423 65.5133 81.7459 64.5284 82.1531 63.6761C82.565 62.8191 83.1379 62.1515 83.8718 61.6733C84.6104 61.1903 85.4722 60.9489 86.457 60.9489C87.0252 60.9489 87.5863 61.0436 88.1403 61.233C88.6942 61.4223 89.1985 61.7301 89.6531 62.1562C90.1076 62.5777 90.4698 63.1364 90.7397 63.8324C91.0096 64.5284 91.1445 65.3854 91.1445 66.4034V67.1136H82.7354V65.6648H89.44C89.44 65.0492 89.3169 64.5 89.0707 64.017C88.8292 63.5341 88.4835 63.1529 88.0337 62.8736C87.5887 62.5942 87.0631 62.4545 86.457 62.4545C85.7894 62.4545 85.2118 62.6203 84.7241 62.9517C84.2411 63.2784 83.8694 63.7045 83.609 64.2301C83.3486 64.7557 83.2184 65.3191 83.2184 65.9205V66.8864C83.2184 67.7102 83.3604 68.4086 83.6445 68.9815C83.9334 69.5497 84.3335 69.983 84.8448 70.2812C85.3562 70.5748 85.9504 70.7216 86.6275 70.7216C87.0678 70.7216 87.4656 70.66 87.8207 70.5369C88.1805 70.4091 88.4906 70.2197 88.7511 69.9688C89.0115 69.7131 89.2127 69.3958 89.3548 69.017L90.9741 69.4716C90.8036 70.0208 90.5172 70.5038 90.1147 70.9205C89.7122 71.3324 89.2151 71.6544 88.6232 71.8864C88.0314 72.1136 87.3661 72.2273 86.6275 72.2273Z" fill="black"/>
</svg>
