<svg width="45" height="39" viewBox="0 0 39 39" fill="none" xmlns="http://www.w3.org/2000/svg">
    <path d="M34.125 9.7175C28.7138 9.18125 23.27 8.905 17.8425 8.905C14.625 8.905 11.4075 9.0675 8.19 9.3925L4.875 9.7175M13.8125 8.07625L14.17 5.9475C14.43 4.40375 14.625 3.25 17.3712 3.25H21.6288C24.375 3.25 24.5862 4.46875 24.83 5.96375L25.1875 8.07625M30.6313 14.8525L29.575 31.2162C29.3963 33.7675 29.25 35.75 24.7163 35.75H14.2837C9.75 35.75 9.60375 33.7675 9.425 31.2162L8.36875 14.8525M16.7862 26.8125H22.1975M15.4375 20.3125H23.5625" stroke="black" stroke-width="1.5" stroke-linecap="round" stroke-linejoin="round"/>
</svg>
